<?xml version="1.0" encoding="utf-8"?>
<svg xmlns="http://www.w3.org/2000/svg"
	xmlns:xlink="http://www.w3.org/1999/xlink"
	width="40px" height="40px" viewBox="0 0 40 40">
<path fillRule="evenodd" d="M 36.58 17.03C 36.58 17.03 40 20 40 20 40 20 36.58 22.97 36.58 22.97 36.58 22.97 38.79 26.95 38.79 26.95 38.79 26.95 34.58 28.55 34.58 28.55 34.58 28.55 35.32 33.05 35.32 33.05 35.32 33.05 30.82 33.1 30.82 33.1 30.82 33.1 30 37.59 30 37.59 30 37.59 25.76 36.07 25.76 36.07 25.76 36.07 23.47 40 23.47 40 23.47 40 20 37.1 20 37.1 20 37.1 16.53 40 16.53 40 16.53 40 14.24 36.07 14.24 36.07 14.24 36.07 10 37.59 10 37.59 10 37.59 9.18 33.1 9.18 33.1 9.18 33.1 4.68 33.05 4.68 33.05 4.68 33.05 5.41 28.55 5.41 28.55 5.41 28.55 1.2 26.95 1.2 26.95 1.2 26.95 3.42 22.97 3.42 22.97 3.42 22.97 0 20 0 20 0 20 3.42 17.03 3.42 17.03 3.42 17.03 1.2 13.05 1.2 13.05 1.2 13.05 5.42 11.45 5.42 11.45 5.42 11.45 4.68 6.95 4.68 6.95 4.68 6.95 9.18 6.9 9.18 6.9 9.18 6.9 10 2.41 10 2.41 10 2.41 14.24 3.93 14.24 3.93 14.24 3.93 16.53-0 16.53-0 16.53-0 20 2.9 20 2.9 20 2.9 23.47-0 23.47-0 23.47-0 25.76 3.93 25.76 3.93 25.76 3.93 30 2.41 30 2.41 30 2.41 30.82 6.9 30.82 6.9 30.82 6.9 35.32 6.95 35.32 6.95 35.32 6.95 34.59 11.45 34.59 11.45 34.59 11.45 38.79 13.05 38.79 13.05 38.79 13.05 36.58 17.03 36.58 17.03ZM 33.92 13.25C 33.92 13.25 32.46 12.7 32.46 12.7 32.46 12.7 32.72 11.13 32.72 11.13 32.72 11.13 33.09 8.85 33.09 8.85 33.09 8.85 30.8 8.82 30.8 8.82 30.8 8.82 29.24 8.81 29.24 8.81 29.24 8.81 28.96 7.25 28.96 7.25 28.96 7.25 28.54 4.97 28.54 4.97 28.54 4.97 26.39 5.74 26.39 5.74 26.39 5.74 24.92 6.27 24.92 6.27 24.92 6.27 24.13 4.91 24.13 4.91 24.13 4.91 22.97 2.91 22.97 2.91 22.97 2.91 21.2 4.38 21.2 4.38 21.2 4.38 20 5.39 20 5.39 20 5.39 18.79 4.38 18.79 4.38 18.79 4.38 17.03 2.91 17.03 2.91 17.03 2.91 15.87 4.9 15.87 4.9 15.87 4.9 15.08 6.26 15.08 6.26 15.08 6.26 13.61 5.74 13.61 5.74 13.61 5.74 11.46 4.97 11.46 4.97 11.46 4.97 11.04 7.25 11.04 7.25 11.04 7.25 10.76 8.81 10.76 8.81 10.76 8.81 9.2 8.82 9.2 8.82 9.2 8.82 6.91 8.85 6.91 8.85 6.91 8.85 7.29 11.13 7.29 11.13 7.29 11.13 7.54 12.69 7.54 12.69 7.54 12.69 6.08 13.25 6.08 13.25 6.08 13.25 3.95 14.06 3.95 14.06 3.95 14.06 5.07 16.08 5.07 16.08 5.07 16.08 5.83 17.46 5.83 17.46 5.83 17.46 4.65 18.49 4.65 18.49 4.65 18.49 2.92 20 2.92 20 2.92 20 4.65 21.51 4.65 21.51 4.65 21.51 5.83 22.54 5.83 22.54 5.83 22.54 5.07 23.92 5.07 23.92 5.07 23.92 3.94 25.93 3.94 25.93 3.94 25.93 6.08 26.74 6.08 26.74 6.08 26.74 7.54 27.3 7.54 27.3 7.54 27.3 7.28 28.86 7.28 28.86 7.28 28.86 6.91 31.15 6.91 31.15 6.91 31.15 9.19 31.17 9.19 31.17 9.19 31.17 10.75 31.19 10.75 31.19 10.75 31.19 11.04 32.75 11.04 32.75 11.04 32.75 11.46 35.02 11.46 35.02 11.46 35.02 13.61 34.26 13.61 34.26 13.61 34.26 15.08 33.73 15.08 33.73 15.08 33.73 15.87 35.09 15.87 35.09 15.87 35.09 17.03 37.09 17.03 37.09 17.03 37.09 18.79 35.61 18.79 35.61 18.79 35.61 20 34.6 20 34.6 20 34.6 21.21 35.61 21.21 35.61 21.21 35.61 22.97 37.09 22.97 37.09 22.97 37.09 24.13 35.09 24.13 35.09 24.13 35.09 24.92 33.73 24.92 33.73 24.92 33.73 26.39 34.26 26.39 34.26 26.39 34.26 28.54 35.03 28.54 35.03 28.54 35.03 28.96 32.75 28.96 32.75 28.96 32.75 29.24 31.19 29.24 31.19 29.24 31.19 30.8 31.17 30.8 31.17 30.8 31.17 33.08 31.15 33.08 31.15 33.08 31.15 32.71 28.87 32.71 28.87 32.71 28.87 32.46 27.3 32.46 27.3 32.46 27.3 33.92 26.75 33.92 26.75 33.92 26.75 36.05 25.93 36.05 25.93 36.05 25.93 34.93 23.92 34.93 23.92 34.93 23.92 34.17 22.54 34.17 22.54 34.17 22.54 35.35 21.51 35.35 21.51 35.35 21.51 37.08 20 37.08 20 37.08 20 35.35 18.49 35.35 18.49 35.35 18.49 34.17 17.46 34.17 17.46 34.17 17.46 34.93 16.08 34.93 16.08 34.93 16.08 36.05 14.06 36.05 14.06 36.05 14.06 33.92 13.25 33.92 13.25ZM 24.67 27.43C 22.89 27.43 21.34 25.97 21.32 23.06 21.32 20.13 22.89 18.5 24.78 18.5 26.79 18.5 28.09 20.07 28.09 22.84 28.09 25.91 26.5 27.43 24.67 27.43ZM 24.72 19.69C 23.51 19.69 22.84 21.14 22.84 22.98 22.82 24.83 23.53 26.24 24.72 26.24 25.99 26.24 26.57 24.85 26.57 22.93 26.57 21.16 26.06 19.69 24.72 19.69ZM 15.2 27.39C 15.2 27.39 23.61 12.64 23.61 12.64 23.61 12.64 24.85 12.64 24.85 12.64 24.85 12.64 16.43 27.39 16.43 27.39 16.43 27.39 15.2 27.39 15.2 27.39ZM 15.33 21.41C 13.55 21.41 12.01 19.95 11.98 17.02 11.98 14.12 13.55 12.48 15.44 12.48 17.45 12.48 18.77 14.05 18.77 16.82 18.77 19.89 17.18 21.41 15.33 21.41ZM 15.38 13.67C 14.17 13.67 13.53 15.12 13.53 16.96 13.48 18.81 14.17 20.22 15.38 20.22 16.65 20.22 17.23 18.84 17.23 16.91 17.23 15.14 16.72 13.67 15.38 13.67Z" fill="rgb(241,109,127)"/></svg>