<?xml version="1.0" encoding="utf-8"?>
<svg xmlns="http://www.w3.org/2000/svg"
	xmlns:xlink="http://www.w3.org/1999/xlink"
	width="45px" height="32px" viewBox="0 0 45 32">
<path fillRule="evenodd" d="M 44.07 27.3C 44.07 27.3 41.26 27.3 41.26 27.3 40.81 29.96 38.52 32 35.76 32 33 32 30.71 29.96 30.27 27.3 30.27 27.3 14.78 27.3 14.78 27.3 14.34 29.96 12.05 32 9.29 32 6.53 32 4.24 29.96 3.79 27.3 3.79 27.3 1.86 27.3 1.86 27.3 0.83 27.3-0 26.45-0 25.42-0 25.42-0 1.88-0 1.88-0 0.84 0.83-0 1.86-0 1.86-0 27.42-0 27.42-0 28.44-0 29.27 0.84 29.27 1.88 29.27 1.88 29.27 3.79 29.27 3.79 29.27 3.79 36.39 3.79 36.39 3.79 36.48 3.79 36.56 3.8 36.63 3.82 38.94 4.02 40.09 5.23 41.31 7.29 41.31 7.29 44.87 13.4 44.87 13.4 44.96 13.54 45 13.71 45 13.87 45 13.87 45 26.36 45 26.36 45 26.88 44.58 27.3 44.07 27.3ZM 9.29 30.12C 11.34 30.12 13.01 28.43 13.01 26.36 13.01 24.28 11.34 22.59 9.29 22.59 7.24 22.59 5.57 24.28 5.57 26.36 5.57 28.43 7.24 30.12 9.29 30.12ZM 27.42 1.88C 27.42 1.88 1.86 1.88 1.86 1.88 1.86 1.88 1.86 25.42 1.86 25.42 1.86 25.42 3.79 25.42 3.79 25.42 4.24 22.75 6.53 20.71 9.29 20.71 12.05 20.71 14.34 22.75 14.78 25.42 14.78 25.42 27.42 25.42 27.42 25.42 27.42 25.42 27.42 1.88 27.42 1.88ZM 35.76 30.12C 37.81 30.12 39.48 28.43 39.48 26.36 39.48 24.28 37.81 22.59 35.76 22.59 33.71 22.59 32.04 24.28 32.04 26.36 32.04 28.43 33.71 30.12 35.76 30.12ZM 39.82 8.43C 39.82 8.43 32.92 8.43 32.92 8.43 32.92 8.43 32.92 12.2 32.92 12.2 32.92 12.73 33.34 13.16 33.87 13.16 33.93 13.16 33.99 13.16 34.06 13.18 34.06 13.18 42.59 13.18 42.59 13.18 42.59 13.18 39.82 8.43 39.82 8.43ZM 43.14 16.06C 43.14 16.06 42.26 16.06 42.26 16.06 41.75 16.06 41.33 16.48 41.33 17 41.33 17 41.33 17.91 41.33 17.91 41.33 17.91 43.14 17.91 43.14 17.91 43.14 17.91 43.14 16.06 43.14 16.06ZM 43.14 19.79C 43.14 19.79 40.41 19.79 40.41 19.79 39.89 19.79 39.48 19.37 39.48 18.85 39.48 18.85 39.48 17 39.48 17 39.48 16.25 39.77 15.56 40.25 15.06 40.25 15.06 33.87 15.06 33.87 15.06 33.79 15.06 33.71 15.05 33.64 15.03 32.2 14.91 31.06 13.68 31.06 12.2 31.06 12.2 31.06 7.49 31.06 7.49 31.06 6.97 31.48 6.55 31.99 6.55 31.99 6.55 38.48 6.55 38.48 6.55 37.82 5.92 37.08 5.67 35.9 5.67 35.9 5.67 29.27 5.67 29.27 5.67 29.27 5.67 29.27 25.42 29.27 25.42 29.27 25.42 30.27 25.42 30.27 25.42 30.71 22.75 33 20.71 35.76 20.71 38.52 20.71 40.81 22.75 41.26 25.42 41.26 25.42 43.14 25.42 43.14 25.42 43.14 25.42 43.14 19.79 43.14 19.79ZM 35.76 23.57C 36.27 23.57 36.69 23.99 36.69 24.51 36.69 25.03 36.27 25.45 35.76 25.45 35.27 25.45 34.87 25.86 34.87 26.36 34.87 26.86 35.27 27.26 35.76 27.26 36.25 27.26 36.65 26.86 36.65 26.36 36.65 25.84 37.07 25.42 37.58 25.42 38.09 25.42 38.51 25.84 38.51 26.36 38.51 27.89 37.28 29.14 35.76 29.14 34.24 29.14 33.01 27.89 33.01 26.36 33.01 24.82 34.24 23.57 35.76 23.57ZM 3.75 4.73C 3.75 4.21 4.17 3.79 4.68 3.79 4.68 3.79 24.59 3.79 24.59 3.79 25.1 3.79 25.52 4.21 25.52 4.73 25.52 5.25 25.1 5.67 24.59 5.67 24.59 5.67 4.68 5.67 4.68 5.67 4.17 5.67 3.75 5.25 3.75 4.73ZM 9.29 23.57C 9.8 23.57 10.22 23.99 10.22 24.51 10.22 25.03 9.8 25.45 9.29 25.45 8.8 25.45 8.4 25.86 8.4 26.36 8.4 26.86 8.8 27.26 9.29 27.26 9.78 27.26 10.18 26.86 10.18 26.36 10.18 25.84 10.6 25.42 11.11 25.42 11.62 25.42 12.04 25.84 12.04 26.36 12.04 27.89 10.81 29.14 9.29 29.14 7.77 29.14 6.54 27.89 6.54 26.36 6.54 24.82 7.77 23.57 9.29 23.57Z" fill="rgb(241,109,127)"/></svg>