<?xml version="1.0" encoding="utf-8"?>
<svg xmlns="http://www.w3.org/2000/svg"
	xmlns:xlink="http://www.w3.org/1999/xlink"
	width="47px" height="35px" viewBox="0 0 47 35">
<path fillRule="evenodd" d="M 42.37 8.55C 39.81 8.55 37.73 10.59 37.73 13.09 37.73 14.43 38.33 15.63 39.29 16.46 39.29 16.46 33.42 18.52 33.42 18.52 33.42 18.52 25.08 8.82 25.08 8.82 26.88 8.19 28.18 6.53 28.18 4.56 28.18 2.05 26.1 0.01 23.53 0.01 20.97 0.01 18.89 2.05 18.89 4.56 18.89 6.51 20.16 8.16 21.93 8.81 21.93 8.81 13.58 18.52 13.58 18.52 13.58 18.52 7.72 16.46 7.72 16.46 8.67 15.63 9.28 14.43 9.28 13.09 9.28 10.59 7.19 8.55 4.63 8.55 2.07 8.55-0.02 10.59-0.02 13.09-0.02 15.22 1.5 17.01 3.53 17.49 3.53 17.49 3.53 29.81 3.53 29.81 3.53 29.89 3.56 29.97 3.58 30.05 3.55 30.17 3.53 30.3 3.53 30.44 3.53 34.86 21.46 34.99 23.5 34.99 25.54 34.99 43.47 34.86 43.47 30.44 43.47 30.3 43.45 30.17 43.42 30.05 43.44 29.97 43.47 29.89 43.47 29.81 43.47 29.81 43.47 17.49 43.47 17.49 45.5 17.01 47.02 15.22 47.02 13.09 47.02 10.59 44.93 8.55 42.37 8.55ZM 21.15 4.56C 21.15 3.27 22.22 2.22 23.54 2.22 24.85 2.22 25.92 3.27 25.92 4.56 25.92 5.84 24.85 6.89 23.54 6.89 22.22 6.89 21.15 5.84 21.15 4.56ZM 13.56 20.87C 14 21.02 14.5 20.89 14.8 20.53 14.8 20.53 23.5 10.42 23.5 10.42 23.5 10.42 32.2 20.53 32.2 20.53 32.5 20.89 33 21.02 33.45 20.87 33.45 20.87 41.21 18.14 41.21 18.14 41.21 18.14 41.21 28.09 41.21 28.09 36.32 25.97 25.09 25.89 23.5 25.89 21.91 25.89 10.68 25.97 5.79 28.09 5.79 28.09 5.79 18.13 5.79 18.13 5.79 18.13 13.56 20.87 13.56 20.87ZM 23.5 32.78C 14.8 32.78 9.25 31.77 6.94 30.91 6.49 30.75 6.15 30.58 5.94 30.44 6.67 29.92 9.01 29.2 12.91 28.7 15.67 28.35 19.19 28.1 23.5 28.1 27.81 28.1 31.34 28.35 34.09 28.7 38 29.2 40.34 29.92 41.06 30.44 40.86 30.59 40.52 30.75 40.07 30.91 37.76 31.77 32.21 32.78 23.5 32.78ZM 2.25 13.09C 2.25 11.81 3.32 10.76 4.64 10.76 5.95 10.76 7.02 11.81 7.02 13.09 7.02 14.38 5.95 15.43 4.64 15.43 3.32 15.43 2.25 14.38 2.25 13.09ZM 42.37 15.43C 41.06 15.43 39.99 14.38 39.99 13.09 39.99 11.81 41.06 10.76 42.37 10.76 43.69 10.76 44.76 11.81 44.76 13.09 44.76 14.38 43.69 15.43 42.37 15.43Z" fill="rgb(241,109,127)"/></svg>