<?xml version="1.0" encoding="utf-8"?>
<svg xmlns="http://www.w3.org/2000/svg"
	xmlns:xlink="http://www.w3.org/1999/xlink"
	width="26px" height="24px" viewBox="0 0 26 24">
<path fillRule="evenodd" d="M 25.92 6.26C 25.92 6.26 21.53 16.53 21.53 16.53 21.37 16.89 21.03 17.12 20.64 17.12 20.64 17.12 8.57 17.12 8.57 17.12 8.14 17.12 7.76 16.83 7.65 16.4 7.65 16.4 3.72 1.96 3.72 1.96 3.72 1.96 0.96 1.96 0.96 1.96 0.43 1.96-0 1.52-0 0.98-0 0.44 0.43-0 0.96-0 0.96-0 4.44-0 4.44-0 4.87-0 5.26 0.29 5.37 0.72 5.37 0.72 9.3 15.16 9.3 15.16 9.3 15.16 20 15.16 20 15.16 20 15.16 23.56 6.85 23.56 6.85 23.56 6.85 11.7 6.85 11.7 6.85 11.17 6.85 10.74 6.41 10.74 5.87 10.74 5.33 11.17 4.89 11.7 4.89 11.7 4.89 25.04 4.89 25.04 4.89 25.36 4.89 25.66 5.05 25.84 5.33 26.01 5.61 26.05 5.95 25.92 6.26ZM 7.66 19.56C 8.86 19.56 9.84 20.56 9.84 21.78 9.84 23 8.86 24 7.66 24 6.46 24 5.48 23 5.48 21.78 5.48 20.56 6.46 19.56 7.66 19.56ZM 21.14 19.56C 22.34 19.48 23.39 20.41 23.47 21.62 23.5 22.22 23.32 22.79 22.94 23.23 22.55 23.69 22.02 23.95 21.45 24 21.4 24 21.33 24 21.29 24 20.15 24 19.2 23.09 19.12 21.93 19.04 20.72 19.94 19.65 21.14 19.56Z" fill="rgb(239,91,111)"/></svg>