<?xml version="1.0" encoding="utf-8"?>
<svg xmlns="http://www.w3.org/2000/svg"
	xmlns:xlink="http://www.w3.org/1999/xlink"
	width="32px" height="29px" viewBox="0 0 32 29">
<path fillRule="evenodd" d="M 31.9 7.56C 31.9 7.56 26.49 19.98 26.49 19.98 26.3 20.41 25.88 20.69 25.41 20.69 25.41 20.69 10.55 20.69 10.55 20.69 10.02 20.69 9.55 20.33 9.41 19.82 9.41 19.82 4.58 2.36 4.58 2.36 4.58 2.36 1.18 2.36 1.18 2.36 0.53 2.36-0 1.83-0 1.18-0 0.53 0.53-0 1.18-0 1.18-0 5.46-0 5.46-0 6-0 6.47 0.35 6.61 0.87 6.61 0.87 11.44 18.32 11.44 18.32 11.44 18.32 24.62 18.32 24.62 18.32 24.62 18.32 29 8.27 29 8.27 29 8.27 14.4 8.27 14.4 8.27 13.75 8.27 13.22 7.74 13.22 7.09 13.22 6.44 13.75 5.91 14.4 5.91 14.4 5.91 30.81 5.91 30.81 5.91 31.21 5.91 31.58 6.11 31.8 6.44 32.02 6.78 32.06 7.19 31.9 7.56ZM 9.43 23.64C 10.91 23.64 12.11 24.84 12.11 26.32 12.11 27.8 10.91 29 9.43 29 7.95 29 6.75 27.8 6.75 26.32 6.75 24.84 7.95 23.64 9.43 23.64ZM 26.02 23.64C 27.5 23.54 28.78 24.67 28.88 26.12 28.92 26.85 28.7 27.54 28.23 28.07 27.76 28.63 27.11 28.94 26.39 29 26.34 29 26.26 29 26.2 29 24.8 29 23.63 27.9 23.53 26.5 23.44 25.04 24.54 23.74 26.02 23.64Z" fill="rgb(33,33,33)"/></svg>