<?xml version="1.0" encoding="utf-8"?>
<svg xmlns="http://www.w3.org/2000/svg"
	xmlns:xlink="http://www.w3.org/1999/xlink"
	width="23px" height="22px" viewBox="0 0 23 22">
<clipPath id="clip0"><path fillRule="evenodd" d="M 22.93 5.74C 22.93 5.74 19.04 15.15 19.04 15.15 18.9 15.48 18.6 15.69 18.26 15.69 18.26 15.69 7.59 15.69 7.59 15.69 7.2 15.69 6.86 15.42 6.76 15.04 6.76 15.04 3.29 1.79 3.29 1.79 3.29 1.79 0.85 1.79 0.85 1.79 0.38 1.79-0 1.39-0 0.9-0 0.4 0.38-0 0.85-0 0.85-0 3.93-0 3.93-0 4.31-0 4.65 0.27 4.75 0.66 4.75 0.66 8.22 13.9 8.22 13.9 8.22 13.9 17.7 13.9 17.7 13.9 17.7 13.9 20.84 6.28 20.84 6.28 20.84 6.28 10.35 6.28 10.35 6.28 9.88 6.28 9.5 5.87 9.5 5.38 9.5 4.89 9.88 4.48 10.35 4.48 10.35 4.48 22.15 4.48 22.15 4.48 22.43 4.48 22.7 4.63 22.86 4.89 23.01 5.14 23.04 5.45 22.93 5.74ZM 6.78 17.93C 7.84 17.93 8.71 18.85 8.71 19.97 8.71 21.09 7.84 22 6.78 22 5.71 22 4.85 21.09 4.85 19.97 4.85 18.85 5.71 17.93 6.78 17.93ZM 18.7 17.93C 19.77 17.86 20.69 18.71 20.76 19.82 20.79 20.37 20.63 20.89 20.29 21.3 19.95 21.72 19.48 21.96 18.97 22 18.93 22 18.87 22 18.83 22 17.82 22 16.99 21.16 16.92 20.1 16.84 19 17.64 18.01 18.7 17.93Z"/></clipPath><defs>
<symbol id="symbol0"><path fillRule="evenodd" d="M 22.93 5.74C 22.93 5.74 19.04 15.15 19.04 15.15 18.9 15.48 18.6 15.69 18.26 15.69 18.26 15.69 7.59 15.69 7.59 15.69 7.2 15.69 6.86 15.42 6.76 15.04 6.76 15.04 3.29 1.79 3.29 1.79 3.29 1.79 0.85 1.79 0.85 1.79 0.38 1.79-0 1.39-0 0.9-0 0.4 0.38-0 0.85-0 0.85-0 3.93-0 3.93-0 4.31-0 4.65 0.27 4.75 0.66 4.75 0.66 8.22 13.9 8.22 13.9 8.22 13.9 17.7 13.9 17.7 13.9 17.7 13.9 20.84 6.28 20.84 6.28 20.84 6.28 10.35 6.28 10.35 6.28 9.88 6.28 9.5 5.87 9.5 5.38 9.5 4.89 9.88 4.48 10.35 4.48 10.35 4.48 22.15 4.48 22.15 4.48 22.43 4.48 22.7 4.63 22.86 4.89 23.01 5.14 23.04 5.45 22.93 5.74ZM 6.78 17.93C 7.84 17.93 8.71 18.85 8.71 19.97 8.71 21.09 7.84 22 6.78 22 5.71 22 4.85 21.09 4.85 19.97 4.85 18.85 5.71 17.93 6.78 17.93ZM 18.7 17.93C 19.77 17.86 20.69 18.71 20.76 19.82 20.79 20.37 20.63 20.89 20.29 21.3 19.95 21.72 19.48 21.96 18.97 22 18.93 22 18.87 22 18.83 22 17.82 22 16.99 21.16 16.92 20.1 16.84 19 17.64 18.01 18.7 17.93Z"/></symbol></defs>
<g><use xlink:href="#symbol0" x="0" y="0" width="23" height="22" fill="rgb(255,255,255)"/><use xlink:href="#symbol0" x="0" y="0" width="23" height="22" fill="none" stroke="rgb(255,255,255)" stroke-width="4.00px" clip-path="url(#clip0)"/></g></svg>